Coordinates
version=1
nRows=7
nColumns=63
inDegrees=yes

Units are S.I. units (second, meters, Newtons, ...)
If the header above contains a line with 'inDegrees', this indicates whether rotational values are in degrees (yes) or radians (no).

endheader
time	pelvis_tilt	pelvis_list	pelvis_rotation	pelvis_tx	pelvis_ty	pelvis_tz	hip_flexion_r	hip_adduction_r	hip_rotation_r	knee_angle_r	knee_angle_r_beta	ankle_angle_r	subtalar_angle_r	mtp_angle_r	hip_flexion_l	hip_adduction_l	hip_rotation_l	knee_angle_l	knee_angle_l_beta	ankle_angle_l	subtalar_angle_l	mtp_angle_l	L5_S1_Flex_Ext	L5_S1_Lat_Bending	L5_S1_axial_rotation	L4_L5_Flex_Ext	L4_L5_Lat_Bending	L4_L5_axial_rotation	L3_L4_Flex_Ext	L3_L4_Lat_Bending	L3_L4_axial_rotation	L2_L3_Flex_Ext	L2_L3_Lat_Bending	L2_L3_axial_rotation	L1_L2_Flex_Ext	L1_L2_Lat_Bending	L1_L2_axial_rotation	L1_T12_Flex_Ext	L1_T12_Lat_Bending	L1_T12_axial_rotation	Abs_r3	Abs_r2	Abs_r1	Abs_t1	Abs_t2	neck_flexion	neck_bending	neck_rotation	arm_flex_r	arm_add_r	arm_rot_r	elbow_flex_r	pro_sup_r	wrist_flex_r	wrist_dev_r	arm_flex_l	arm_add_l	arm_rot_l	elbow_flex_l	pro_sup_l	wrist_flex_l	wrist_dev_l
      0.03333333	      4.58562811	     -2.51658036	    176.24558222	      2.35191009	      0.89517460	      0.73407685	     14.24295212	     -4.31598933	     -5.30789652	     25.59029541	      0.44663491	     22.78924742	     -5.85381028	      0.00000000	      4.34656851	      2.70649568	      2.64918919	      8.88003254	      0.15498581	     13.30462032	    -17.47227858	      0.00000000	      0.00247203	     -0.29831227	     -0.08721962	      0.00459081	     -0.39675531	     -0.09267084	      0.00406130	     -0.72531644	     -0.09267084	      0.00282528	     -0.72531644	     -0.07631717	      0.00229553	     -0.60831837	     -0.07086594	      0.00141252	     -0.46208570	     -0.06541471	      0.01765747	     -3.37456801	     -0.48508935	      0.00000000	      0.00000000	     -0.00000000	      0.00000000	      0.00000001	    -13.86249425	      0.50732967	    -25.77296068	     25.05963409	     54.57605631	      0.00000000	      5.23238911	    -10.20768040	    -11.48683394	     41.65100813	     20.52160590	     59.02860963	      0.00000000	      5.23238911
      0.06666667	      4.64849189	     -1.69148846	    177.27931103	      2.35052099	      0.89691482	      0.73451388	     13.27397509	     -3.56567508	     -6.77516608	     23.84794411	      0.41622514	     22.37792834	     -5.61364885	      0.00000000	      4.55190399	      1.51391301	      3.44134098	      9.56315211	      0.16690849	     13.68762471	    -16.49451213	      0.00000000	     -0.00069280	     -0.20377604	     -0.26535389	     -0.00128659	     -0.27102213	     -0.28193851	     -0.00113820	     -0.49546106	     -0.28193851	     -0.00079180	     -0.49546106	     -0.23218466	     -0.00064333	     -0.41554009	     -0.21560004	     -0.00039586	     -0.31564908	     -0.19901542	     -0.00494859	     -2.30515528	     -1.47581875	      0.00000000	      0.00000000	     -0.00000000	      0.00000000	      0.00000001	    -14.38120784	      0.63563485	    -24.02545387	     25.31971247	     55.01223337	      0.00000000	      5.22143867	    -10.35289613	    -10.78412931	     42.46814059	     19.67643711	     59.16279853	      0.00000000	      5.22143867
      0.10000000	      4.67990381	     -1.15405536	    177.85656175	      2.34928239	      0.89829067	      0.73479930	     12.51295799	     -3.37970361	     -9.42552255	     22.55241518	      0.39361390	     22.68313057	     -2.63307588	      0.00000000	      4.81881711	      0.62611806	      2.75583520	     10.30581070	      0.17987033	     14.34298457	    -14.49021413	      0.00000000	     -0.00236845	     -0.14100488	     -0.36458164	     -0.00439845	     -0.18753650	     -0.38736799	     -0.00389113	     -0.34283928	     -0.38736799	     -0.00270690	     -0.34283928	     -0.31900894	     -0.00219934	     -0.28753716	     -0.29622258	     -0.00135333	     -0.21841657	     -0.27343623	     -0.01691761	     -1.59507545	     -2.02769372	      0.00000000	      0.00000000	     -0.00000000	      0.00000000	      0.00000001	    -14.89783164	     -0.42143528	    -17.10261276	     25.19634318	     56.47762074	      0.00000000	      5.17921675	    -10.06223028	    -10.52212681	     46.37880443	     18.91887078	     59.91957161	      0.00000000	      5.17921675
      0.13333333	      4.70019134	     -0.79632546	    178.12678099	      2.34834846	      0.89914955	      0.73470601	     12.00360952	     -2.95235145	     -9.89154045	     21.56096130	      0.37630976	     22.41257394	     -2.42873795	      0.00000000	      4.99783459	      0.07452584	      2.50400020	     10.76099933	      0.18781487	     14.40939143	    -14.10408569	      0.00000000	     -0.00292133	     -0.09613071	     -0.42046396	     -0.00542520	     -0.12785385	     -0.44674296	     -0.00479945	     -0.23373221	     -0.44674296	     -0.00333879	     -0.23373221	     -0.36790596	     -0.00271275	     -0.19602975	     -0.34162697	     -0.00166925	     -0.14890647	     -0.31534797	     -0.02086677	     -1.08744984	     -2.33849440	      0.00000000	      0.00000000	     -0.00000000	      0.00000000	      0.00000001	    -15.11453102	     -0.27247567	    -16.77578637	     25.34113618	     56.50287332	      0.00000000	      5.17536117	    -10.20311434	    -10.19564994	     46.74391691	     18.59567669	     59.98376631	      0.00000000	      5.17536117
      0.16666667	      4.70449388	     -0.65786479	    178.44263720	      2.34776259	      0.89956008	      0.73477796	     11.78990607	     -2.82167986	    -10.30971958	     21.23281061	      0.37058245	     22.42819848	     -2.32936207	      0.00000000	      5.16799130	     -0.20468794	      1.82289363	     11.07691154	      0.19332858	     14.68339355	    -12.93053925	      0.00000000	     -0.00387303	     -0.07771638	     -0.47842155	     -0.00719260	     -0.10336278	     -0.50832290	     -0.00636300	     -0.18895960	     -0.50832290	     -0.00442648	     -0.18895960	     -0.41861886	     -0.00359649	     -0.15847923	     -0.38871751	     -0.00221305	     -0.12038267	     -0.35881616	     -0.02766465	     -0.87914318	     -2.66083713	      0.00000000	      0.00000000	     -0.00000000	      0.00000000	      0.00000001	    -15.12435512	     -0.16620554	    -16.46937373	     25.17135693	     56.49068829	      0.00000000	      5.17088627	    -10.26488367	    -10.12883115	     46.95225189	     18.58509754	     59.94364046	      0.00000000	      5.17088627
      0.20000000	      4.74928214	     -0.66359953	    178.50737613	      2.34741548	      0.89951457	      0.73478355	     11.84654912	     -2.83263932	    -10.35935407	     21.29459622	      0.37166082	     22.45149705	     -2.34662474	      0.00000000	      5.28124025	     -0.21007193	      1.61672752	     11.16895301	      0.19493500	     14.84147320	    -12.84438933	      0.00000000	     -0.00107237	     -0.07353182	     -0.48641456	     -0.00199150	     -0.09779732	     -0.51681547	     -0.00176180	     -0.17878526	     -0.51681547	     -0.00122562	     -0.17878526	     -0.42561274	     -0.00099581	     -0.14994608	     -0.39521183	     -0.00061275	     -0.11390078	     -0.36481092	     -0.00765986	     -0.83180662	     -2.70529188	      0.00000000	      0.00000000	     -0.00000000	      0.00000000	      0.00000001	    -15.19340707	     -0.06065345	    -16.40211650	     25.20543613	     56.42856303	      0.00000000	      5.16910104	    -10.29265594	    -10.14203468	     46.97455109	     18.67889265	     59.85787751	      0.00000000	      5.16910104
      0.23333333	      4.69874687	     -0.48936518	    178.97335757	      2.34707310	      0.89965944	      0.73541565	     11.41882719	     -2.92621122	    -12.30679770	     20.79386458	      0.36292140	     22.67192971	     -0.44377334	      0.00000000	      5.60716612	     -0.65118511	     -1.32442826	     11.90886728	      0.20784894	     16.33315946	     -8.25742356	      0.00000000	     -0.00592257	     -0.05234119	     -0.56929403	     -0.01099880	     -0.06961378	     -0.60487490	     -0.00973018	     -0.12726236	     -0.60487490	     -0.00676890	     -0.12726236	     -0.49813227	     -0.00549969	     -0.10673414	     -0.46255140	     -0.00338415	     -0.08107650	     -0.42697052	     -0.04230429	     -0.59209395	     -3.16624258	      0.00000000	      0.00000000	     -0.00000000	      0.00000000	      0.00000000	    -14.51551173	     -1.99641053	     -6.43304724	     23.31979425	     58.21331482	      0.00000000	      5.12520118	     -9.73737292	    -10.25793892	     50.70762932	     18.39167698	     60.10574558	      0.00000000	      5.12520118
